#!OML:ASF F:\VICON\USERDATA\INSTALL\rory3\rory3.ASF
:FULLY-SPECIFIED
:DEGREES
229
root 0.529907 18.0762 13.7392 -4.0113 -4.52009 -0.860614
lowerback 8.47906 1.83416 0.807513
upperback 0.228289 2.5316 0.256357
thorax -4.49307 1.23797 -0.496073
lowerneck -16.3949 -3.36018 -1.8579
upperneck 21.5626 -4.57915 1.55779
head 9.60828 -2.10485 0.252175
rclavicle 5.05877e-015 -1.65488e-014
rhumerus -29.8396 -23.3653 -78.0423
rradius 22.7968
rwrist 7.38438
rhand -17.4781 19.061
rfingers 7.12502
rthumb 8.77397 -10.7367
lclavicle 5.05877e-015 -1.65488e-014
lhumerus -36.4245 9.95662 79.6567
lradius 18.3777
lwrist 0.696253
lhand -27.2045 22.0743
lfingers 7.12502
lthumb -0.61757 52.0531
rfemur -1.13603 4.27324 23.7993
rtibia 61.8072
rfoot 20.5755 0.371943
rtoes 19.2927
lfemur -13.0805 -2.66714 -21.5806
ltibia 19.8781
lfoot -1.52169 -3.02403
ltoes 0.640095
230
root 0.539842 18.0892 13.9136 -4.15164 -4.38611 -0.178483
lowerback 8.60815 1.79473 0.064319
upperback 0.201365 2.4002 0.110059
thorax -4.61935 1.18662 -0.220494
lowerneck -16.2252 -3.24936 -1.92134
upperneck 21.5185 -4.41343 1.57619
head 9.56013 -2.0329 0.293983
rclavicle 1.12116e-014 8.12532e-015
rhumerus -29.9637 -23.5675 -77.8494
rradius 21.9772
rwrist 7.71161
rhand -17.586 20.2333
rfingers 7.12502
rthumb 8.66983 -9.56868
lclavicle 1.12116e-014 8.12532e-015
lhumerus -36.3851 8.7885 80.2137
lradius 18.8258
lwrist 2.09461
lhand -26.8557 24.058
lfingers 7.12502
lthumb -0.280748 54.0376
rfemur -2.39943 4.1879 22.9864
rtibia 63.8964
rfoot 18.2452 0.155724
rtoes 13.9582
lfemur -12.3796 -2.95155 -22.531
ltibia 19.9427
lfoot -1.77267 -2.63209
ltoes 0.499383
231
root 0.544822 18.1097 14.0871 -4.21369 -4.21962 0.229858
lowerback 8.67773 1.74598 -0.402016
upperback 0.312808 2.28608 0.0572507
thorax -4.55861 1.13968 0.000290539
lowerneck -16.458 -3.22472 -1.96712
upperneck 21.2702 -4.32888 1.46624
head 9.51295 -2.00945 0.272597
rclavicle -1.05858e-014 9.8709e-015
rhumerus -29.8371 -24.0113 -77.6744
rradius 21.4186
rwrist 8.67433
rhand -17.4342 20.8778
rfingers 7.12502
rthumb 8.81634 -8.91801
lclavicle -1.05858e-014 9.8709e-015
lhumerus -35.7427 8.19325 80.6163
lradius 18.7507
lwrist 2.81251
lhand -27.0191 23.3726
lfingers 7.12502
lthumb -0.438554 53.3519
rfemur -3.70689 4.17868 22.5681
rtibia 65.7442
rfoot 16.196 -0.0842521
rtoes 17.0826
lfemur -11.6722 -3.13078 -23.1565
ltibia 19.8964
lfoot -2.31778 -2.30701
ltoes 0.660632
232
root 0.551217 18.1301 14.2585 -4.2405 -4.00833 0.201566
lowerback 8.74279 1.62121 -0.361262
upperback 0.446186 2.12495 0.0872243
thorax -4.45488 1.05931 0.0292088
lowerneck -16.7016 -3.21896 -1.93818
upperneck 20.9856 -4.28662 1.34073
head 9.45374 -2.00147 0.228187
rclavicle 7.50373e-015 -9.46712e-015
rhumerus -29.574 -24.2763 -77.7003
rradius 20.9403
rwrist 9.52571
rhand -17.3318 21.2939
rfingers 7.12502
rthumb 8.91516 -8.49774
lclavicle 7.50373e-015 -9.46712e-015
lhumerus -34.9898 7.53187 80.9802
lradius 18.6773
lwrist 3.29635
lhand -27.343 21.7487
lfingers 7.12502
lthumb -0.751389 51.7271
rfemur -5.11045 4.1187 22.6416
rtibia 67.3563
rfoot 14.9244 -0.472069
rtoes 18.5928
lfemur -11.0325 -3.37837 -23.2703
ltibia 19.849
lfoot -2.87689 -2.06139
ltoes 1.79659
233
root 0.557886 18.1388 14.4352 -4.30781 -3.76237 0.173511
lowerback 8.8869 1.48903 -0.348843
upperback 0.396875 1.95196 0.133092
thorax -4.58731 0.973749 0.0865053
lowerneck -16.6652 -3.15864 -2.11497
upperneck 21.1951 -4.19919 1.50153
head 9.52699 -1.95586 0.323437
rclavicle -1.3733e-014 1.7344e-014
rhumerus -29.794 -24.5573 -77.4952
rradius 20.4681
rwrist 10.5465
rhand -17.5503 22.7277
rfingers 7.12502
rthumb 8.7043 -7.07281
lclavicle -1.3733e-014 1.7344e-014
lhumerus -34.8699 6.71987 81.3002
lradius 18.9835
lwrist 3.57154
lhand -27.494 22.0834
lfingers 7.12502
lthumb -0.897188 52.0613
rfemur -6.38962 3.98309 22.662
rtibia 68.7786
rfoot 13.3141 -1.14642
rtoes 17.9379
lfemur -10.3505 -3.57099 -23.3945
ltibia 19.9619
lfoot -3.48269 -1.93258
ltoes 2.63901
234
root 0.562481 18.1353 14.6131 -4.4519 -3.55908 0.472458
lowerback 8.94698 1.39498 -0.730761
upperback 0.432399 1.7878 0.134556
thorax -4.5948 0.900488 0.322379
lowerneck -16.7437 -3.04309 -2.31601
upperneck 21.4163 -4.01745 1.62872
head 9.62328 -1.87139 0.422289
rclavicle 1.77974e-015 -8.10048e-015
rhumerus -30.0659 -24.4626 -77.362
rradius 20.2889
rwrist 10.9802
rhand -17.7342 23.975
rfingers 7.12502
rthumb 8.52684 -5.83285
lclavicle 1.77974e-015 -8.10048e-015
lhumerus -34.7153 6.2257 81.5265
lradius 19.4757
lwrist 3.87042
lhand -27.291 22.8938
lfingers 7.12502
lthumb -0.70119 52.8723
rfemur -7.54528 3.74994 22.2419
rtibia 70.0955
rfoot 11.3374 -1.82334
rtoes 15.3629
lfemur -9.63659 -3.56616 -23.8784
ltibia 20.212
lfoot -4.22743 -1.78314
ltoes 2.54515
235
root 0.568343 18.1328 14.7836 -4.45874 -3.21852 0.806811
lowerback 8.86037 1.25498 -1.14883
upperback 0.511268 1.55943 0.112156
thorax -4.47178 0.795374 0.566267
lowerneck -16.8746 -2.94236 -2.29615
upperneck 21.3394 -3.83746 1.46668
head 9.61265 -1.80413 0.385384
rclavicle -1.13789e-014 -6.5102e-015
rhumerus -30.0219 -24.4234 -77.3644
rradius 20.0882
rwrist 11.6473
rhand -17.3377 23.5132
rfingers 7.12502
rthumb 8.90952 -6.2787
lclavicle -1.13789e-014 -6.5102e-015
lhumerus -34.1175 6.34153 81.4874
lradius 19.5015
lwrist 3.71531
lhand -27.2182 22.5318
lfingers 7.12502
lthumb -0.630789 52.5106
rfemur -8.8341 3.42354 21.788
rtibia 71.2518
rfoot 9.51623 -2.69678
rtoes 14.018
lfemur -9.10281 -3.68812 -24.3874
ltibia 20.3924
lfoot -4.81473 -1.71537
ltoes 2.41156
236
root 0.567341 18.1366 14.9519 -4.45676 -2.98614 0.584862
lowerback 8.91395 1.1882 -0.941315
upperback 0.532323 1.49392 0.177719
thorax -4.47493 0.759354 0.525179
lowerneck -16.6873 -2.93966 -2.34835
upperneck 21.0941 -3.81056 1.43538
head 9.49164 -1.80177 0.390699
rclavicle 8.60365e-015 1.0138e-014
rhumerus -29.9601 -25.0813 -77.1084
rradius 19.6197
rwrist 13.0987
rhand -17.2179 23.0214
rfingers 7.12502
rthumb 9.0251 -6.76553
lclavicle 8.60365e-015 1.0138e-014
lhumerus -33.4513 6.35554 81.4036
lradius 19.314
lwrist 3.25349
lhand -27.8214 21.2067
lfingers 7.12502
lthumb -1.21344 51.183
rfemur -10.1165 3.2802 22.0778
rtibia 72.203
rfoot 7.63007 -3.51447
rtoes 13.8615
lfemur -8.58784 -3.69931 -24.2246
ltibia 20.545
lfoot -5.43848 -1.66241
ltoes 1.93335
237
root 0.562236 18.139 15.1211 -4.49787 -2.87115 0.686153
lowerback 9.08985 1.16001 -1.13744
upperback 0.488837 1.4342 0.175998
thorax -4.62264 0.734376 0.637194
lowerneck -16.4321 -2.942 -2.32039
upperneck 20.9422 -3.7988 1.329
head 9.38819 -1.80863 0.355405
rclavicle -4.97816e-015 0
rhumerus -30.0509 -25.6319 -76.9016
rradius 19.3605
rwrist 14.4421
rhand -17.5366 23.2634
rfingers 7.12502
rthumb 8.71753 -6.53659
lclavicle -4.97816e-015 0
lhumerus -33.0248 6.2155 81.3877
lradius 19.3532
lwrist 2.54188
lhand -28.314 20.7817
lfingers 7.12502
lthumb -1.68917 50.7547
rfemur -11.4697 3.27809 21.9832
rtibia 73.0181
rfoot 5.88247 -4.11821
rtoes 13.3181
lfemur -8.20339 -3.41879 -24.3909
ltibia 21.0307
lfoot -6.28934 -1.64142
ltoes 1.9369
238
root 0.563079 18.1355 15.2792 -4.43336 -2.64888 0.883085
lowerback 9.24271 1.0787 -1.40784
upperback 0.400027 1.29359 0.140911
thorax -4.80341 0.671505 0.767398
lowerneck -16.3903 -2.91862 -2.19605
upperneck 21.1126 -3.76118 1.1503
head 9.43278 -1.80116 0.277831
rclavicle 1.61885e-014 7.85199e-015
rhumerus -30.32 -25.4487 -76.9949
rradius 19.6163
rwrist 14.6082
rhand -17.6817 23.4475
rfingers 7.12502
rthumb 8.57755 -6.35825
lclavicle 1.61885e-014 7.85199e-015
lhumerus -32.6336 5.9934 81.3725
lradius 19.5112
lwrist 1.88809
lhand -27.9993 21.8789
lfingers 7.12502
lthumb -1.38521 51.8542
rfemur -13.0202 3.09391 21.6775
rtibia 73.6579
rfoot 4.89798 -4.63349
rtoes 11.5607
lfemur -7.81183 -3.29614 -24.6803
ltibia 21.2158
lfoot -6.83176 -1.69365
ltoes 1.42592
239
root 0.558715 18.1247 15.4074 -4.10717 -2.53351 0.155889
lowerback 9.48496 0.949957 -0.861756
upperback 0.166394 1.19182 0.419136
thorax -5.1759 0.614286 0.757367
lowerneck -16.2876 -2.86907 -2.19752
upperneck 21.3271 -3.69125 1.12103
head 9.48699 -1.77218 0.277255
rclavicle 7.88461e-015 -1.70955e-014
rhumerus -30.6647 -24.8876 -77.1467
rradius 20.0823
rwrist 14.3595
rhand -17.5311 22.8641
rfingers 7.12502
rthumb 8.72288 -6.93567
lclavicle 7.88461e-015 -1.70955e-014
lhumerus -32.3476 5.62028 81.4938
lradius 19.9724
lwrist 2.16674
lhand -27.4693 23.9951
lfingers 7.12502
lthumb -0.873327 53.9731
rfemur -14.9334 3.08271 22.5592
rtibia 74.1075
rfoot 4.29728 -5.32244
rtoes 10.4221
lfemur -7.80127 -3.22468 -23.8686
ltibia 21.2994
lfoot -7.13111 -1.76383
ltoes 1.7138
240
root 0.565834 18.1208 15.6163 -4.45926 -1.88663 1.28569
lowerback 9.03536 0.772024 -1.98063
upperback 0.498438 0.831742 0.157309
thorax -4.58138 0.453591 1.17121
lowerneck -16.2689 -2.82287 -2.20231
upperneck 21.2419 -3.60091 1.02444
head 9.4502 -1.74186 0.257283
rclavicle 4.46178e-015 -3.97569e-016
rhumerus -30.6611 -25.0967 -77.0532
rradius 19.7133
rwrist 13.4975
rhand -17.3815 25.0026
rfingers 7.12502
rthumb 8.86717 -4.79107
lclavicle 4.46178e-015 -3.97569e-016
lhumerus -31.8451 5.07763 81.6838
lradius 20.5769
lwrist 3.2069
lhand -26.5079 25.3955
lfingers 7.12502
lthumb 0.0552073 55.3752
rfemur -15.3829 2.3466 21.0243
rtibia 74.2808
rfoot 2.71187 -5.32579
rtoes 11.8363
lfemur -6.6682 -3.13797 -25.3432
ltibia 21.3403
lfoot -8.07399 -1.9148
ltoes 1.90063
